<svg width="1438" height="745" viewBox="0 0 1438 745" fill="none" xmlns="http://www.w3.org/2000/svg">
<rect width="1434" height="745" fill="#F2A5FF"/>
<g filter="url(#filter0_d_57_7)">
<path fill-rule="evenodd" clip-rule="evenodd" d="M1150.25 474.269C1371.56 311.095 1487.73 113.874 1409.72 33.7617C1331.71 -46.3502 1089.06 20.9844 867.75 184.158C646.439 347.331 530.272 544.553 608.282 624.665C686.292 704.777 928.94 637.442 1150.25 474.269ZM1040.06 508.997C1180.22 399.708 1241.56 260.339 1177.06 197.706C1112.56 135.074 946.651 172.897 806.49 282.186C666.329 391.475 604.993 530.845 669.493 593.477C733.992 656.109 899.902 618.286 1040.06 508.997Z" fill="white"/>
</g>
<defs>
<filter id="filter0_d_57_7" x="580" y="0" width="858" height="666.427" filterUnits="userSpaceOnUse" color-interpolation-filters="sRGB">
<feFlood flood-opacity="0" result="BackgroundImageFix"/>
<feColorMatrix in="SourceAlpha" type="matrix" values="0 0 0 0 0 0 0 0 0 0 0 0 0 0 0 0 0 0 127 0" result="hardAlpha"/>
<feOffset dy="4"/>
<feGaussianBlur stdDeviation="2"/>
<feComposite in2="hardAlpha" operator="out"/>
<feColorMatrix type="matrix" values="0 0 0 0 0 0 0 0 0 0 0 0 0 0 0 0 0 0 0.25 0"/>
<feBlend mode="normal" in2="BackgroundImageFix" result="effect1_dropShadow_57_7"/>
<feBlend mode="normal" in="SourceGraphic" in2="effect1_dropShadow_57_7" result="shape"/>
</filter>
</defs>
</svg>
