<svg width="1298" height="936" viewBox="0 0 1298 936" fill="none" xmlns="http://www.w3.org/2000/svg">
<path fill-rule="evenodd" clip-rule="evenodd" d="M1298 768.745C715.465 747.842 261.984 584.233 261.984 385.5C261.984 186.767 715.465 23.1575 1298 2.2555C1256.46 0.764843 1214.25 0 1171.52 0C529.484 0 9.01428 172.594 9.01428 385.5C9.01428 598.406 529.484 771 1171.52 771C1214.25 771 1256.46 770.235 1298 768.745Z" fill="white"/>
<g filter="url(#filter0_d_42_60)">
<path d="M8 385C8 365.67 23.67 350 43 350H1298V916H43C23.6701 916 8 900.33 8 881V385Z" fill="#3F3D56" fill-opacity="0.91" shape-rendering="crispEdges"/>
</g>
<defs>
<filter id="filter0_d_42_60" x="0" y="350" width="1306" height="586" filterUnits="userSpaceOnUse" color-interpolation-filters="sRGB">
<feFlood flood-opacity="0" result="BackgroundImageFix"/>
<feColorMatrix in="SourceAlpha" type="matrix" values="0 0 0 0 0 0 0 0 0 0 0 0 0 0 0 0 0 0 127 0" result="hardAlpha"/>
<feOffset dy="12"/>
<feGaussianBlur stdDeviation="4"/>
<feComposite in2="hardAlpha" operator="out"/>
<feColorMatrix type="matrix" values="0 0 0 0 0 0 0 0 0 0 0 0 0 0 0 0 0 0 0.35 0"/>
<feBlend mode="normal" in2="BackgroundImageFix" result="effect1_dropShadow_42_60"/>
<feBlend mode="normal" in="SourceGraphic" in2="effect1_dropShadow_42_60" result="shape"/>
</filter>
</defs>
</svg>
