<svg width="310" height="365" viewBox="0 0 310 365" fill="none" xmlns="http://www.w3.org/2000/svg">
<g filter="url(#filter0_d_46_111)">
<rect x="4" width="302" height="357" rx="20" fill="#D9D9D9"/>
</g>
<path d="M79.48 318L81 309.16H75.28L73.76 318H66.16L70.56 293H78.16L76.6 301.84H82.32L83.88 293H91.48L87.08 318H79.48ZM64.96 317.88L48 316.08H65.28L64.96 317.88ZM66.32 310.16L49.36 308.36H66.64L66.32 310.16ZM67 306.32L50.04 304.52H67.32L67 306.32ZM67.68 302.48L50.72 300.68H68L67.68 302.48ZM68.36 298.64L51.4 296.84H68.64L68.36 298.64ZM65.64 314L48.68 312.2H65.96L65.64 314ZM69 294.8L52.08 293H69.32L69 294.8ZM112.868 318L112.708 314.76H107.668L106.428 318H99.5081L108.388 296.84H118.308L119.868 318H112.868ZM112.708 309.04V302.96H112.148L109.788 309.04H112.708ZM98.2281 317.84L81.8281 316.08H98.9881L98.2281 317.84ZM99.8681 313.96L83.4681 312.2H100.628L99.8681 313.96ZM101.508 310.12L85.1081 308.36H102.228L101.508 310.12ZM103.108 306.28L86.7481 304.52H103.868L103.108 306.28ZM104.748 302.44L88.3881 300.68H105.468L104.748 302.44ZM106.348 298.56L90.0281 296.84H107.068L106.348 298.56ZM130.301 318L133.981 296.84H141.021L137.301 318H130.301ZM128.981 317.88L112.021 316.08H129.301L128.981 317.88ZM130.341 310.16L113.381 308.36H130.661L130.341 310.16ZM131.021 306.32L114.061 304.52H131.341L131.021 306.32ZM131.701 302.48L114.741 300.68H132.021L131.701 302.48ZM132.381 298.64L115.421 296.84H132.661L132.381 298.64ZM129.661 314L112.701 312.2H129.981L129.661 314ZM163.711 296.84C167.604 296.84 169.551 298.6 169.551 302.12C169.551 303.72 169.231 305.387 168.591 307.12C167.951 308.827 166.871 310.107 165.351 310.96L167.631 318H160.151L158.631 311.84H157.671L156.591 318H149.871L153.551 296.84H163.711ZM162.231 303.76C162.231 303.733 162.244 303.6 162.271 303.36C162.271 302.907 161.564 302.68 160.151 302.68H159.271L158.631 306.36H159.911C161.138 306.36 161.831 305.96 161.991 305.16L162.231 303.76ZM148.551 317.88L131.591 316.08H148.871L148.551 317.88ZM149.911 310.16L132.951 308.36H150.231L149.911 310.16ZM150.591 306.32L133.631 304.52H150.911L150.591 306.32ZM151.271 302.48L134.311 300.68H151.591L151.271 302.48ZM151.951 298.64L134.991 296.84H152.231L151.951 298.64ZM149.231 314L132.271 312.2H149.551L149.231 314ZM192.099 317.56C190.659 318.173 188.659 318.48 186.099 318.48C183.539 318.48 181.646 317.947 180.419 316.88C179.219 315.787 178.619 314.08 178.619 311.76C178.619 310.72 178.779 309.28 179.099 307.44C179.766 303.573 180.912 300.773 182.539 299.04C184.192 297.307 186.819 296.44 190.419 296.44C193.006 296.44 194.779 296.733 195.739 297.32L193.699 302.88C192.366 302.507 191.152 302.32 190.059 302.32C188.966 302.32 188.192 302.413 187.739 302.6C187.312 302.787 187.046 303.147 186.939 303.68L185.379 312.24C185.939 312.373 186.899 312.44 188.259 312.44C189.646 312.44 191.139 312.147 192.739 311.56L192.099 317.56ZM177.699 308.36C177.592 309.187 177.526 309.747 177.499 310.04L161.739 308.36H177.699ZM178.459 304.52L178.099 306.2L162.459 304.52H178.459ZM177.459 312.2C177.459 312.627 177.512 313.187 177.619 313.88L161.899 312.2H177.459ZM179.859 300.68C179.539 301.373 179.312 301.907 179.179 302.28L164.059 300.68H179.859ZM178.299 316.08C178.619 316.72 178.966 317.213 179.339 317.56L165.379 316.08H178.299ZM183.339 296.84C182.699 297.213 182.152 297.653 181.699 298.16L169.419 296.84H183.339ZM203.544 310.16L186.584 308.36H203.864L203.544 310.16ZM204.224 306.32L187.264 304.52H204.544L204.224 306.32ZM204.904 302.48L187.944 300.68H205.224L204.904 302.48ZM205.584 298.64L188.624 296.84H205.864L205.584 298.64ZM203.384 312.2V313C203.384 313.453 203.397 313.787 203.424 314L186.464 312.2H203.384ZM204.944 317.88L187.984 316.08H203.784C204.077 316.827 204.464 317.427 204.944 317.88ZM213.144 312.4C213.864 312.4 214.357 312.32 214.624 312.16C214.917 311.973 215.117 311.547 215.224 310.88L217.744 296.84H224.464L222.384 308.76C221.744 312.493 220.704 315.053 219.264 316.44C217.85 317.8 215.424 318.48 211.984 318.48C209.237 318.48 207.317 318.08 206.224 317.28C205.13 316.453 204.584 315.027 204.584 313C204.584 311.88 204.73 310.467 205.024 308.76L207.144 296.84H213.864L211.144 312.4H213.144ZM249.486 302.84H245.166L242.526 318H235.486L238.126 302.84H233.686L234.766 296.84H250.566L249.486 302.84ZM234.286 317.88L217.326 316.08H234.606L234.286 317.88ZM235.646 310.16L218.686 308.36H235.966L235.646 310.16ZM236.326 306.32L219.366 304.52H236.646L236.326 306.32ZM232.486 302.48L215.526 300.68H232.806L232.486 302.48ZM233.166 298.64L216.206 296.84H233.446L233.166 298.64ZM234.966 314L218.006 312.2H235.286L234.966 314Z" fill="black" fill-opacity="0.83"/>
<g clip-path="url(#clip0_46_111)">
<path opacity="0.1" d="M305.62 185.243C305.641 174.423 303.826 163.755 300.327 154.137C296.828 144.52 291.748 136.236 285.516 129.985C285.688 127.648 285.777 125.299 285.78 122.949C285.78 85.7883 264.819 55.6629 238.959 55.6629C230.996 55.6508 223.167 58.5616 216.233 64.1117C197.931 47.0492 174.036 36.7225 147.895 36.7225C105.362 36.7225 68.7749 64.0667 52.5435 103.274C51.6415 103.199 50.7341 103.158 49.8189 103.158C23.9639 103.158 2.99741 133.284 2.99741 170.445C2.97905 183.574 5.65639 196.426 10.7031 207.437C10.7031 240.872 32.9737 267.973 60.4344 267.973H259.656C281.225 267.973 298.711 246.693 298.711 220.44C303.248 209.827 305.638 197.651 305.62 185.243Z" fill="black"/>
<path d="M222.183 61.5215C220.188 62.7134 218.188 63.9092 216.331 65.4835C215.487 66.1957 214.678 66.9828 213.81 67.6313C212.876 68.336 211.884 68.8682 210.9 69.438C208.185 71.0096 205.548 72.8405 203.007 74.918C203.226 70.8886 202.811 66.5105 201.11 63.3694C200.86 62.9039 200.582 62.47 200.28 62.0725C199.076 60.4907 197.37 60.0821 196.187 58.699C196.907 56.9073 198.505 55.2805 199.592 53.9123C200.766 52.4405 201.985 51.0449 203.248 49.7254C205.771 47.0846 208.458 44.7724 211.276 42.8173C213.064 41.5766 214.932 40.467 216.905 40.0885C217.154 40.0091 217.414 40.0419 217.649 40.1822C217.955 40.4221 218.066 40.9618 218.141 41.4454C218.508 43.863 218.696 46.3444 219.003 48.7809C219.153 50.033 219.357 51.271 219.614 52.488C219.944 53.9272 220.324 55.3421 220.754 56.7273C221.232 58.3241 221.708 59.9222 222.183 61.5215Z" fill="#FBBEBE"/>
<path d="M165.571 129.846C165.57 134.822 164.461 139.67 162.4 143.699C160.339 147.728 157.433 150.732 154.096 152.282C150.76 153.832 147.162 153.848 143.819 152.329C140.475 150.81 137.555 147.834 135.476 143.824C133.372 139.773 132.238 134.875 132.24 129.846C132.24 123.583 133.996 117.577 137.122 113.148C140.247 108.72 144.486 106.232 148.906 106.232C153.326 106.232 157.565 108.72 160.69 113.148C163.815 117.577 165.571 123.583 165.571 129.846Z" fill="#BE6F72"/>
<path d="M142.935 150.657C143.827 152.835 144.726 155.031 145.297 157.404C145.869 159.777 146.091 162.404 145.62 164.83C151.297 160.594 158.053 160.935 164.301 158.791C164.468 158.764 164.622 158.649 164.732 158.469C164.77 158.346 164.79 158.213 164.79 158.079C164.79 157.945 164.77 157.812 164.732 157.689C163.424 150.83 162.921 143.713 163.243 136.623L159.981 139.356C158.554 140.605 157.074 141.732 155.551 142.729C153.395 144.067 151.107 144.877 148.855 145.814C147.072 146.564 143.533 147.535 142.411 149.742C142.614 150.013 142.79 150.321 142.935 150.657Z" fill="#BE6F72"/>
<path d="M133.753 118.901C132.669 119.52 131.394 120.232 130.397 119.366C129.664 118.725 129.362 117.394 129.407 116.176C129.452 114.958 129.78 113.803 130.04 112.641C130.569 110.254 130.854 107.769 131.444 105.392C132.034 103.016 132.997 100.725 134.526 99.4697C137.341 97.1607 140.983 99.0686 144.107 97.7905C145.43 97.2544 146.58 96.1749 147.811 95.3278C149.041 94.4807 150.424 93.8285 151.752 94.282C153.307 94.7955 154.455 96.651 155.905 97.5955C157.492 98.6301 159.392 98.5589 160.836 99.942C161.86 100.924 162.505 102.51 163.079 104.065C164.916 109.064 166.366 114.33 167.404 119.771C167.819 121.719 168.057 123.734 168.11 125.768C168.124 128.369 167.626 130.918 167.134 133.43L166.341 137.403C166.047 138.902 165.746 140.402 165.19 141.758C164.635 143.115 163.777 144.259 162.717 144.652C161.394 145.136 159.854 144.199 159.278 142.444C158.923 141.357 158.939 140.113 158.921 138.917C158.891 136.576 158.714 134.242 158.392 131.945C158.228 130.795 158.008 129.599 157.455 128.729C156.741 127.605 155.604 127.23 154.545 127.204C153.307 127.181 151.95 127.657 151.228 129.078C150.649 130.225 150.548 131.837 149.779 132.732C149.436 133.104 149.03 133.339 148.601 133.411C147.728 133.565 146.844 133.3 146.089 132.658C145.335 132.016 144.754 131.034 144.44 129.869C144.197 128.879 144.078 127.65 143.417 127.185C143.073 126.941 142.663 126.986 142.295 126.829C141.168 126.345 140.872 124.321 140.769 122.661C140.65 120.715 141.107 116.873 139.401 116.742C137.563 116.6 135.444 118.103 133.753 118.901Z" fill="#3F3D56"/>
<path d="M137.751 144.499C137.163 144.9 136.521 145.368 136.29 146.23C136.2 146.568 136.185 146.939 136.103 147.284C135.73 148.809 134.275 149.109 133.523 150.323C133.185 150.937 132.957 151.659 132.859 152.426C132.358 155.451 132.52 158.622 133.325 161.512C133.558 162.428 133.918 163.269 134.383 163.986C135.727 165.928 138.044 165.89 139.719 164.567C141.393 163.244 142.549 160.924 143.531 158.57C144.051 157.385 144.486 156.129 144.829 154.821C145.131 153.491 145.346 152.125 145.472 150.74C146.059 145.338 146.827 139.348 146.562 133.872C145.768 133.801 144.253 133.722 143.552 134.427C142.673 135.311 142.917 137.096 142.599 138.389C141.848 141.5 139.668 143.142 137.751 144.499Z" fill="#3F3D56"/>
<path d="M138.438 145.214C137.446 145.301 135.669 143.745 134.674 143.824C133.997 142.15 133.399 140.414 132.883 138.629C133.412 137.553 134.264 137.29 135.552 138.629C136.587 139.659 138.015 143.224 138.438 145.214Z" fill="#3F3D56"/>
<path d="M153.392 85.9907C152.315 86.7966 151.649 86.8341 151.117 86.6729C150.585 86.5117 149.53 87.2614 149.53 87.2614C140.205 91.7819 139.838 93.9147 139.838 93.9147L150.633 88.5133C152.71 87.2239 152.749 87.6774 152.749 87.6774C154.336 89.7915 156.357 88.3596 156.357 88.3596C156.357 88.3596 159.153 86.4855 158.331 84.6825C157.508 82.8796 154.471 85.1998 153.392 85.9907ZM157.889 85.6533C157.889 85.6533 157.095 88.652 154.241 88.1647C154.241 88.1647 152.839 87.8724 153.432 86.3918C153.432 86.3918 156.342 84.66 157.111 84.7837C157.881 84.9074 157.881 85.6683 157.881 85.6683L157.889 85.6533Z" fill="#E8E8F0"/>
<path opacity="0.1" d="M153.392 85.9907C152.315 86.7966 151.649 86.8341 151.117 86.6729C150.585 86.5117 149.53 87.2614 149.53 87.2614C140.205 91.7819 139.838 93.9147 139.838 93.9147L150.633 88.5133C152.71 87.2239 152.749 87.6774 152.749 87.6774C154.336 89.7915 156.357 88.3596 156.357 88.3596C156.357 88.3596 159.153 86.4855 158.331 84.6825C157.508 82.8796 154.471 85.1998 153.392 85.9907ZM157.889 85.6533C157.889 85.6533 157.095 88.652 154.241 88.1647C154.241 88.1647 152.839 87.8724 153.432 86.3918C153.432 86.3918 156.342 84.66 157.111 84.7837C157.881 84.9074 157.881 85.6683 157.881 85.6683L157.889 85.6533Z" fill="black"/>
<path d="M153.985 77.6319C152.371 77.7068 152.035 79.4161 152.035 79.4161C151.712 79.9624 151.523 80.6423 151.496 81.354C151.468 82.0656 151.605 82.7706 151.884 83.3631L149.019 87.4001C148.477 87.6968 148.01 88.2196 147.681 88.8994C147.681 88.8994 141.39 96.7709 141.483 97.4868C141.483 97.4868 142.509 98.2365 149.019 89.829L150.728 87.6849C150.728 87.6849 151.107 83.6779 153.776 82.917C153.776 82.917 154.04 83.082 154.18 82.1899C154.33 81.762 154.529 81.373 154.77 81.0391C155.125 80.5743 155.598 77.5532 153.985 77.6319ZM154.437 80.3419C154.437 80.3419 153.572 83.5055 152.339 82.5909C151.107 81.6763 152.305 79.566 152.305 79.566C154.442 76.6198 154.437 80.3419 154.437 80.3419Z" fill="#E8E8F0"/>
<path opacity="0.1" d="M149.075 88.9744C149.263 88.9744 149.416 88.7579 149.416 88.4909C149.416 88.2238 149.263 88.0073 149.075 88.0073C148.887 88.0073 148.734 88.2238 148.734 88.4909C148.734 88.7579 148.887 88.9744 149.075 88.9744Z" fill="black"/>
<path d="M178.927 73.2013C177.931 72.4581 176.898 71.8215 175.835 71.2972C174.422 70.7295 172.97 70.3776 171.504 70.2476C166.873 69.6229 162.228 69.2606 157.569 69.1606C156.746 69.1606 155.905 69.1344 155.125 69.5355C154.428 69.9145 153.796 70.5012 153.273 71.256C152.367 72.4838 151.647 73.9608 151.157 75.5965C151 76.0064 150.953 76.4832 151.025 76.9384C151.13 77.3732 151.554 77.6619 151.794 77.3545C151.179 78.0577 150.726 79.0071 150.496 80.0792C150.266 81.1513 150.268 82.2968 150.503 83.3668C150.136 83.639 149.825 84.0406 149.599 84.5331C149.374 85.0255 149.241 85.5921 149.215 86.1781C151.138 86.6826 153.118 86.5466 154.998 85.7808C154.437 85.5784 153.858 86.3243 153.823 87.1414C153.827 87.5519 153.911 87.953 154.065 88.3003C154.22 88.6476 154.439 88.9276 154.699 89.1093C155.224 89.4611 155.802 89.6234 156.381 89.5816C158.622 89.5816 160.802 88.5058 163.037 88.3671C164.746 88.2584 166.507 88.697 168.14 87.9923C170.034 87.1602 171.724 84.8025 173.676 85.2935C175.234 85.6871 176.25 87.7374 177.266 89.4541C178.89 92.1942 180.898 94.4132 182.89 96.6135C184.424 98.3077 186.027 100.047 187.929 100.62C188.498 100.84 189.102 100.8 189.654 100.504C190.115 100.155 190.502 99.637 190.775 99.0049C192.825 94.8817 192.828 89.6903 192.709 84.8587C192.648 82.3885 192.267 82.0549 190.654 81.0316C188.781 79.8396 186.915 78.6189 185.056 77.3695C183.003 76.0101 180.96 74.6207 178.927 73.2013Z" fill="#FBBEBE"/>
<path d="M200.367 82.4522C200.052 82.7192 199.718 82.9415 199.372 83.1157C198.793 83.3106 198.203 82.962 197.64 82.6921C195.259 81.5676 192.614 81.8337 190.312 80.4431C191.067 86.5813 190.079 92.8934 187.564 98.0041C187.088 98.9637 186.461 99.9457 185.635 100.021C186.003 101.621 187.135 102.588 188.209 103.308C189.924 104.458 191.718 105.355 193.563 105.984C194.092 106.16 194.738 106.247 195.045 105.609C195.23 105.235 195.309 104.594 195.635 104.616C196.132 105.366 195.968 106.903 196.656 107.24C196.87 107.317 197.095 107.317 197.309 107.24L198.843 106.865C199.304 106.809 199.747 106.592 200.134 106.235C200.377 105.937 200.577 105.576 200.724 105.171C202.443 101.022 203.105 96.2199 203.369 91.4782C203.499 89.1243 203.66 86.6279 203.547 84.2664C203.441 82.2423 201.61 81.6313 200.367 82.4522Z" fill="#E8E8F0"/>
<path opacity="0.1" d="M200.367 82.4522C200.052 82.7192 199.718 82.9415 199.372 83.1157C198.793 83.3106 198.203 82.962 197.64 82.6921C195.259 81.5676 192.614 81.8337 190.312 80.4431C191.067 86.5813 190.079 92.8934 187.564 98.0041C187.088 98.9637 186.461 99.9457 185.635 100.021C186.003 101.621 187.135 102.588 188.209 103.308C189.924 104.458 191.718 105.355 193.563 105.984C194.092 106.16 194.738 106.247 195.045 105.609C195.23 105.235 195.309 104.594 195.635 104.616C196.132 105.366 195.968 106.903 196.656 107.24C196.87 107.317 197.095 107.317 197.309 107.24L198.843 106.865C199.304 106.809 199.747 106.592 200.134 106.235C200.377 105.937 200.577 105.576 200.724 105.171C202.443 101.022 203.105 96.2199 203.369 91.4782C203.499 89.1243 203.66 86.6279 203.547 84.2664C203.441 82.2423 201.61 81.6313 200.367 82.4522Z" fill="black"/>
<path d="M111.689 204.037C110.935 202.665 110.16 201.211 109.044 200.487C108.401 200.12 107.724 199.885 107.034 199.79C103.312 199.041 99.5819 198.261 95.8256 198.115C94.5981 198.066 93.2808 198.115 92.2809 199.131C91.1355 200.289 90.6937 202.422 90.6302 204.412C90.5619 206.782 90.894 209.141 91.5989 211.292C92.3037 213.444 93.3611 215.326 94.6828 216.781C96.9313 219.21 99.7723 220.226 102.545 221.028C104.002 221.452 105.468 221.83 106.938 222.153C108.409 222.475 109.906 222.73 111.327 223.375C114.364 224.754 117.043 227.873 120.228 228.131C120.378 228.164 120.531 228.127 120.665 228.026C120.805 227.867 120.899 227.64 120.929 227.389C121.63 223.885 124.061 215.492 120.929 213.041C119.292 211.762 117.475 211.706 115.871 210.083C114.268 208.46 112.906 206.252 111.689 204.037Z" fill="#BE6F72"/>
<path d="M84.9482 227.303C82.8875 224.762 80.0438 223.416 78.5466 220.181C77.8879 218.757 77.5546 217.085 77.224 215.443L76.2505 210.488C76.1755 210.184 76.1414 209.862 76.15 209.54C76.224 208.505 77.0838 208.014 77.8086 207.853C81.512 207.036 85.3688 209.15 88.141 212.726C90.9133 216.302 92.6936 221.235 93.7384 226.347C93.8119 226.607 93.8231 226.895 93.7702 227.164C93.6797 227.404 93.5368 227.596 93.3628 227.712C92.0243 228.836 90.2255 230.474 88.6621 230.819C87.0988 231.164 86.0618 228.66 84.9482 227.303Z" fill="#BE6F72"/>
<path d="M175.358 205.938L186.204 212.089C187.233 212.672 188.08 213.759 188.59 215.153C189.101 216.547 189.241 218.155 188.984 219.683L180.914 267.785H160.735L164.248 213.059C164.248 213.059 171.92 204.063 175.358 205.938Z" fill="#3F3D56"/>
<path d="M185.834 200.165C185.633 200.787 185.336 201.402 185.381 202.08C185.408 202.485 185.556 202.868 185.535 203.269C185.493 204.056 184.85 204.494 184.294 204.502C183.739 204.509 183.181 204.254 182.633 204.389C181.734 204.607 181.125 205.78 180.347 206.459C179.263 207.403 177.909 207.347 176.644 207.508C173.999 207.845 171.496 209.251 169.102 210.852C167.476 211.939 165.748 213.333 165.134 215.724C164.254 219.098 165.962 222.651 166.341 226.22C166.442 227.421 166.467 228.633 166.415 229.841C166.137 242.443 165.658 255.191 165.15 267.778L68.1849 267.939L72.9597 256.083C77.6154 244.519 82.3954 232.738 89.4186 223.896C90.4604 222.563 91.6308 221.447 92.8945 220.582L98.5263 227.704C98.9772 228.34 99.5003 228.863 100.074 229.252C101.132 229.863 102.317 229.515 103.452 229.567C105.634 229.668 107.629 231.246 109.523 232.787C110.912 233.855 112.248 235.056 113.522 236.382C114.268 237.191 115.345 237.697 116.123 238.443L115.94 224.987C115.922 223.772 115.908 222.528 116.165 221.369C116.662 219.12 118.083 217.531 118.765 215.391C119.075 214.427 119.226 213.378 119.485 212.392C119.851 211.125 120.307 209.913 120.845 208.775L124.355 200.784C125.222 198.812 126.087 196.84 127.029 194.94C131.148 186.615 136.692 179.947 142.086 173.256C141.961 171.349 142.271 169.436 142.972 167.798C143.249 167.253 143.478 166.663 143.655 166.04C143.769 165.302 143.802 164.543 143.753 163.791C143.753 163.6 143.753 163.416 143.753 163.214C143.811 161.988 144.173 160.831 144.774 159.945C145.393 159.035 146.221 158.48 147.035 157.962C151.252 155.291 155.636 153.185 160.13 151.673C160.846 151.433 161.606 151.208 162.312 151.512C162.526 152.49 163.256 152.835 163.986 153.082L164.455 153.236C165.695 153.615 166.851 154.415 167.825 155.567C168.848 156.834 169.552 158.528 170.237 160.196C175.388 172.727 177.76 189.167 185.728 198.272C186.114 198.703 186.035 199.565 185.834 200.165Z" fill="#252525"/>
<path opacity="0.1" d="M218.326 46.2583C215.538 54.9432 210.043 63.5007 202.869 63.5007C202.284 63.5011 201.698 63.4599 201.116 63.377C200.866 62.9115 200.588 62.4775 200.285 62.08C199.081 60.4982 197.375 60.0897 196.193 58.7065C196.912 56.9148 198.51 55.2881 199.597 53.9199C200.772 52.4481 201.99 51.0524 203.253 49.733C205.777 47.0921 208.464 44.78 211.281 42.8248C213.07 41.5841 214.937 40.4746 216.911 40.096C217.159 40.0167 217.419 40.0495 217.654 40.1897C217.961 40.4296 218.072 40.9694 218.146 41.4529C218.514 43.8519 218.019 43.8219 218.326 46.2583Z" fill="black"/>
<path d="M202.869 62.7472C212.658 62.7472 220.593 51.5033 220.593 37.6333C220.593 23.7633 212.658 12.5194 202.869 12.5194C193.081 12.5194 185.146 23.7633 185.146 37.6333C185.146 51.5033 193.081 62.7472 202.869 62.7472Z" fill="#FBBEBE"/>
<path d="M239.779 121.158C239.491 124.194 238.987 127.181 238.276 130.075C238.012 131.128 237.687 132.155 237.351 133.167C235.38 139.086 234.298 145.484 233.782 151.991C233.743 152.504 233.676 153.011 233.584 153.509C233.195 155.609 232.375 157.483 231.748 159.458C231.109 161.592 230.578 163.788 230.161 166.029C230.01 166.591 229.959 167.198 230.013 167.794C230.11 168.428 230.433 168.919 230.661 169.492C231.835 172.36 230.478 175.865 230.021 179.111C229.864 180.235 229.796 181.457 229.28 182.334C228.841 183.084 228.158 183.429 227.51 183.744C218.273 188.194 208.818 191.681 199.222 194.179C197.79 194.554 196.312 194.902 194.891 194.528C193.471 194.153 192.055 192.908 191.569 190.967C191.288 189.842 191.336 188.62 191.36 187.428C191.413 184.924 191.36 182.405 191.265 179.883C190.958 171.58 190.262 163.248 191.794 155.294C192.251 152.947 192.897 150.683 193.415 148.363C194.428 143.839 194.69 139.161 194.944 134.468C195.153 130.6 195.357 126.716 195.968 122.901C196.423 120.056 196.121 117.098 196.095 114.182C196.042 107.508 197.427 100.971 200.063 95.4402C200.52 94.4844 201.023 93.5398 201.264 92.4415C201.602 90.8672 201.37 89.1767 201.216 87.5424C200.83 83.3756 200.986 79.1438 201.676 75.0567C201.893 73.5274 202.307 72.0676 202.896 70.7499C203.555 69.3892 204.499 68.3622 205.443 67.3951C210.926 61.7944 216.975 57.4027 223.386 54.3696C223.976 56.4837 224.542 58.9538 224.995 61.1166C225.055 61.409 225.098 61.7801 224.928 61.9675C224.759 62.1549 224.584 62.0537 224.399 62.0612C224.208 62.0906 224.028 62.2012 223.882 62.3785C223.736 62.5557 223.632 62.7914 223.582 63.0545C223.489 63.5854 223.525 64.1448 223.682 64.6438C224.042 65.9557 224.817 66.9341 225.563 67.8599L229.314 72.4966C229.763 73.0919 230.253 73.6219 230.777 74.0784C231.248 74.4532 231.761 74.7194 232.245 75.0642C234.187 76.4549 235.528 79.1649 236.277 82.0586C237.025 84.9523 236.687 88.4308 237.663 91.1783C240.906 100.287 240.879 111.063 239.779 121.158Z" fill="#E8E8F0"/>
<path d="M237.314 216.463C238.453 222.972 238.425 229.783 237.232 236.273C237.017 237.431 236.766 238.631 236.935 239.804C237.033 240.471 237.263 241.097 237.316 241.775C237.339 242.394 237.292 243.015 237.176 243.612C236.002 251.484 236.422 259.663 236.896 267.695C236.695 267.695 236.631 267.826 236.419 267.826H231.322C231.232 265.716 229.38 264.134 228.476 262.451C227.601 260.802 226.995 258.897 226.704 256.875C226.412 254.853 226.442 252.764 226.791 250.76C227.584 246.262 229.923 242.668 231.121 238.368C232.444 233.638 232.33 228.281 233.735 223.603C234.541 220.901 236.049 218.791 237.314 216.463Z" fill="#3F3D56"/>
<path opacity="0.1" d="M237.314 216.463C238.453 222.972 238.425 229.783 237.232 236.273C237.017 237.431 236.766 238.631 236.935 239.804C237.033 240.471 237.263 241.097 237.316 241.775C237.339 242.394 237.292 243.015 237.176 243.612C236.002 251.484 236.422 259.663 236.896 267.695C236.695 267.695 236.631 267.826 236.419 267.826H231.322C231.232 265.716 229.38 264.134 228.476 262.451C227.601 260.802 226.995 258.897 226.704 256.875C226.412 254.853 226.442 252.764 226.791 250.76C227.584 246.262 229.923 242.668 231.121 238.368C232.444 233.638 232.33 228.281 233.735 223.603C234.541 220.901 236.049 218.791 237.314 216.463Z" fill="black"/>
<path d="M226.616 180.385C222.283 179.403 218.085 182.495 213.9 184.373C207.507 187.241 200.467 187.417 194.561 191.919C194.033 192.279 193.555 192.768 193.148 193.366C192.669 194.207 192.367 195.223 192.278 196.297C192.014 198.671 192.338 201.101 193.196 203.175C193.563 204.06 194.026 204.873 194.312 205.821C194.989 208.07 194.537 210.664 194.42 213.123C194.156 218.614 195.658 223.96 195.96 229.447C196.14 232.682 195.904 235.988 196.441 239.144C196.777 241.123 197.41 242.99 197.671 244.991C197.933 246.993 197.82 248.95 197.907 250.929C198.153 256.6 199.975 262.11 199.531 267.759L233.92 267.92C232.645 261.634 231.584 255.134 232.74 248.804C233.141 246.802 233.64 244.842 234.232 242.937C236.155 236.352 238.131 229.747 239.192 222.783C240.253 215.818 240.348 208.381 238.552 201.724C236.552 194.303 232.301 188.129 231.375 180.295C229.788 179.995 228.206 180.745 226.616 180.385Z" fill="#3F3D56"/>
<path d="M190.527 25.3838C190.193 24.3942 189.249 23.742 188.614 24.368C187.979 24.994 188.061 26.3921 187.905 27.5166C187.603 29.7281 186.053 31.2349 184.466 31.5873C183.723 31.756 182.895 31.6885 182.318 31.0063C181.947 30.5022 181.673 29.8709 181.525 29.1734C179.937 23.176 180.903 16.1741 183.501 10.9414C184.052 9.76888 184.736 8.73297 185.524 7.87528C187.712 5.62628 190.638 5.62628 193.344 5.74622C193.893 5.83065 194.449 5.73972 194.971 5.48009C195.368 5.18372 195.732 4.80468 196.05 4.35559C198.613 1.162 202.155 -0.1799 205.573 0.0337549C208.991 0.24741 212.279 1.90792 215.315 4.1157C216.768 5.16898 218.191 6.3647 219.328 8.02897C222.061 12.0135 222.727 17.9171 223.264 23.4197C223.841 29.357 224.415 35.4593 223.444 41.2955C222.894 44.6015 221.857 47.8326 221.979 51.2248C219.782 52.114 217.549 52.8137 215.292 53.3202C214.234 53.5563 213.011 53.695 212.236 52.6342C211.909 52.1363 211.669 51.535 211.538 50.88C210.699 47.3678 210.98 43.3571 209.713 40.111C209.183 38.7875 208.426 37.675 207.511 36.8769C206.597 36.0788 205.556 35.6208 204.483 35.5455C203.652 35.5043 202.708 35.7929 202.282 36.8012C202.119 37.2958 201.993 37.8135 201.907 38.3455C201.319 40.8532 198.915 42.0939 197.33 40.6958C196.537 39.9911 195.994 38.8216 195.277 37.9445C194.367 36.8387 193.201 36.269 192.18 35.3769C188.778 32.3894 191.844 29.3008 190.527 25.3838Z" fill="#3F3D56"/>
<path d="M163.997 153.086C162.55 153.742 161.233 154.93 159.825 155.766C157.347 157.232 154.622 157.573 152.022 158.51C149.524 159.459 147.116 160.834 144.85 162.603C144.684 162.73 144.16 163.353 143.742 163.78C143.742 163.589 143.742 163.405 143.742 163.203C143.801 161.977 144.162 160.82 144.763 159.934C145.382 159.023 146.21 158.469 147.025 157.951C151.245 155.282 155.632 153.18 160.13 151.673C160.846 151.433 161.606 151.208 162.312 151.512C162.537 152.49 163.267 152.835 163.997 153.086Z" fill="#3F3D56"/>
<path opacity="0.1" d="M126.495 249.212C129.341 253.71 131.894 258.62 135.206 262.414C131.383 255.221 125.9 250.419 120.942 244.995C119.937 243.893 117.927 242.33 117.318 240.737C116.358 238.241 118.48 240.014 119.361 240.692C122.112 242.81 124.418 245.936 126.495 249.212Z" fill="black"/>
<path opacity="0.1" d="M228.907 117.915C228.772 119.535 228.346 121.071 227.915 122.578C226.857 126.327 225.722 130.037 224.124 133.362C223.024 135.652 221.714 137.722 220.566 139.959C219.388 142.334 218.307 144.804 217.328 147.355C215.524 151.883 213.766 156.448 212.054 161.051C211.236 163.255 210.424 165.478 209.369 167.468C208.628 168.812 207.833 170.093 206.988 171.307C205.136 174.073 203.234 176.629 201.578 179.628C200.758 181.127 199.391 181.705 198.113 182.214C197.686 182.416 197.241 182.529 196.791 182.552C196.338 182.507 195.892 182.367 195.468 182.136C194.041 181.519 192.645 180.767 191.288 179.887C190.981 171.584 190.286 163.252 191.817 155.298C192.275 152.951 192.92 150.687 193.439 148.367C194.452 143.843 194.714 139.165 194.968 134.472C195.283 133.531 195.619 132.598 195.944 131.69C198.15 125.513 200.01 118.71 199.436 111.824C199.29 110.583 199.188 109.332 199.132 108.076C199.137 106.536 199.32 105.008 199.674 103.552C200.466 100.113 201.774 96.9576 203.51 94.3044C205.245 91.6513 207.366 89.5629 209.726 88.1835C210.471 87.69 211.284 87.4341 212.107 87.4338C213.165 87.5126 214.178 88.2922 215.21 88.0073C218.704 90.1851 221.532 93.9035 223.645 98.409C225.759 102.914 225.875 108.934 228.174 113.252C228.854 114.564 229.039 116.3 228.907 117.915Z" fill="black"/>
<path d="M152.421 97.573L152.31 97.2319L147.988 100.058L147.266 100.53L146.546 100.999L152.641 119.722L153.36 119.25L154.083 118.777L158.405 115.951L158.294 115.614L153.971 118.44L153.86 118.099L158.183 115.273L158.072 114.932L153.749 117.758L153.638 117.417L157.961 114.59L157.852 114.249L153.527 117.076L153.416 116.738L157.741 113.912L157.63 113.571L153.305 116.397L153.194 116.056L157.519 113.23L157.408 112.889L153.085 115.715L152.974 115.374L157.297 112.548L157.185 112.21L152.863 115.037L152.752 114.695L157.074 111.869L156.963 111.528L152.641 114.354L152.53 114.013L156.855 111.187L156.744 110.846L152.419 113.672L152.308 113.335L156.633 110.505L156.521 110.167L152.196 112.994L152.088 112.653L156.41 109.826L156.299 109.485L151.977 112.312L151.866 111.97L156.188 109.144L156.077 108.803L151.755 111.629L151.644 111.292L155.966 108.466L155.858 108.125L151.532 110.951L151.421 110.61L155.746 107.784L155.635 107.442L151.31 110.269L151.202 109.928L155.524 107.105L155.413 106.764L151.091 109.59L150.98 109.249L155.302 106.423L155.191 106.082L150.869 108.908L150.757 108.567L155.08 105.741L154.971 105.4L150.646 108.23L150.535 107.888L154.86 105.062L154.749 104.721L150.424 107.547L150.313 107.206L154.638 104.38L154.527 104.039L150.205 106.865L150.093 106.524L154.416 103.698L154.305 103.36L149.982 106.187L149.871 105.846L154.194 103.019L154.083 102.678L149.76 105.505L149.649 105.163L153.974 102.337L153.863 102L149.538 104.822L149.427 104.485L153.752 101.659L153.641 101.318L149.316 104.144L149.207 103.803L153.53 100.977L153.419 100.635L149.096 103.462L148.985 103.121L153.307 100.294L153.196 99.957L148.874 102.783L148.763 102.442L153.085 99.6159L152.977 99.2748L148.652 102.101L148.541 101.76L152.866 98.9337L152.755 98.5926L148.43 101.419L148.318 101.081L152.644 98.2552L152.532 97.9141L148.207 100.74L148.099 100.399L152.421 97.573Z" fill="black"/>
<path opacity="0.1" d="M165.992 138.752C165.433 140.09 164.579 141.252 163.518 141.646C162.196 142.13 160.656 141.192 160.079 139.438C159.725 138.351 159.741 137.107 159.722 135.911C159.693 133.569 159.516 131.236 159.193 128.939C159.029 127.788 158.81 126.593 158.257 125.723C157.542 124.599 156.405 124.224 155.347 124.197C154.109 124.175 152.752 124.651 152.03 126.072C151.45 127.219 151.35 128.83 150.58 129.726C150.238 130.098 149.831 130.333 149.403 130.405C148.53 130.559 147.645 130.294 146.891 129.652C146.137 129.009 145.556 128.027 145.242 126.863C144.999 125.873 144.88 124.644 144.218 124.179C143.874 123.935 143.464 123.98 143.097 123.823C141.97 123.339 141.673 121.315 141.57 119.654C141.451 117.709 141.909 113.867 140.203 113.736C138.377 113.593 136.259 115.096 134.568 115.895C133.484 116.513 132.209 117.226 131.211 116.36C130.479 115.719 130.177 114.388 130.222 113.17C130.267 111.952 130.595 110.797 130.854 109.635C131.299 107.671 131.566 105.632 131.973 103.638C131.782 104.202 131.611 104.78 131.463 105.37C130.875 107.735 130.6 110.242 130.061 112.619C129.796 113.781 129.473 114.935 129.428 116.154C129.383 117.372 129.693 118.702 130.418 119.343C131.415 120.209 132.69 119.497 133.775 118.879C135.465 118.08 137.584 116.577 139.409 116.72C141.115 116.851 140.658 120.693 140.777 122.638C140.88 124.299 141.176 126.323 142.303 126.806C142.671 126.964 143.081 126.919 143.425 127.162C144.086 127.627 144.218 128.857 144.448 129.846C144.762 131.011 145.343 131.993 146.097 132.635C146.852 133.277 147.736 133.543 148.609 133.388C149.038 133.316 149.444 133.082 149.787 132.71C150.556 131.814 150.657 130.202 151.236 129.055C151.958 127.627 153.315 127.151 154.553 127.181C155.611 127.204 156.762 127.578 157.463 128.707C158.016 129.576 158.236 130.772 158.4 131.923C158.722 134.22 158.899 136.553 158.929 138.895C158.947 140.09 158.929 141.335 159.286 142.422C159.86 144.176 161.402 145.113 162.725 144.63C163.783 144.236 164.64 143.074 165.198 141.736C165.623 140.643 165.95 139.48 166.171 138.272C166.113 138.445 166.055 138.599 165.992 138.752Z" fill="black"/>
<path d="M179.599 136.263C177.483 133.385 175.57 130.199 173.671 127.02C171.851 123.98 170.026 120.925 168.56 117.525C167.653 115.423 166.843 113.129 165.449 111.656C164.391 110.531 163.098 110.006 161.928 109.148C161.087 108.529 160.312 107.746 159.481 107.105C157.67 105.717 155.63 105.036 153.572 105.13C152.718 105.171 151.747 105.452 151.308 106.494C151.157 106.85 151.085 107.266 150.932 107.619C150.458 108.743 149.318 109.062 148.929 110.242C148.273 112.229 150.252 114.054 150.376 116.24C150.435 117.334 150.009 118.354 149.884 119.437C149.673 121.311 150.358 123.099 151.019 124.733C152.434 128.234 154.157 132.069 156.937 132.95C157.921 133.261 158.96 133.16 159.921 133.602C160.695 134.018 161.411 134.623 162.037 135.39C164.649 138.307 166.951 141.742 168.872 145.589C169.766 147.377 170.576 149.244 171.478 151.021C174.349 156.649 178.116 161.239 182.474 164.417L185.72 149.799C186.22 147.55 186.614 144.465 185.191 142.711C183.408 140.435 181.353 138.64 179.599 136.263Z" fill="#FBBEBE"/>
<path d="M214.932 86.1481C213.9 86.4292 212.877 85.6533 211.829 85.5746C211.006 85.5741 210.193 85.83 209.448 86.3243C207.089 87.7046 204.968 89.7932 203.233 92.4462C201.497 95.0993 200.189 98.2538 199.396 101.692C199.046 103.155 198.865 104.688 198.862 106.232C198.878 107.487 199.063 108.724 199.166 109.98C199.74 116.854 197.88 123.661 195.677 129.846C194.457 133.261 193.082 136.863 193.37 140.668C193.407 141.177 193.465 141.751 193.246 142.167C192.981 142.662 192.41 142.688 192.164 143.209C191.918 143.73 192.143 144.517 191.947 145.106C191.683 145.938 190.82 145.837 190.204 145.541C188.514 144.73 186.949 143.471 185.593 141.83C183.395 143.648 181.043 145.814 180.321 149.27C180.151 150.152 180.034 151.052 179.969 151.961L178.834 165.38C178.684 167.157 178.61 169.241 179.557 170.426C181.189 172.472 184.096 169.822 185.842 171.674C186.289 172.146 186.58 172.851 186.9 173.492C188.807 177.199 192.09 178.83 195.169 180.239C195.593 180.467 196.039 180.606 196.492 180.651C196.942 180.633 197.388 180.52 197.814 180.314C199.095 179.804 200.46 179.212 201.28 177.731C202.938 174.733 204.84 172.176 206.692 169.41C207.536 168.195 208.33 166.913 209.073 165.572C210.131 163.578 210.94 161.355 211.758 159.151C213.466 154.548 215.223 149.982 217.027 145.454C218.015 142.914 219.106 140.456 220.294 138.093C221.445 135.844 222.751 133.782 223.852 131.495C225.439 128.167 226.579 124.441 227.642 120.712C228.074 119.212 228.5 117.664 228.637 116.049C228.775 114.433 228.589 112.698 227.896 111.397C225.598 107.075 225.484 101.059 223.37 96.5535C221.257 92.048 218.429 88.3221 214.932 86.1481Z" fill="#E8E8F0"/>
<path d="M152.493 99.1099C152.431 99.1655 152.379 99.2396 152.339 99.3271C152.3 99.4145 152.275 99.5131 152.265 99.6159C152.265 99.8033 152.374 99.9495 152.432 100.118C152.593 100.598 152.334 101.153 152.038 101.483C151.741 101.812 151.382 102.067 151.22 102.551C151.196 102.615 151.184 102.688 151.189 102.761C151.206 102.86 151.248 102.947 151.305 103.008C151.479 103.292 151.705 103.502 151.958 103.615C152.363 103.735 152.752 103.357 153.096 103.046C153.469 102.711 153.866 102.435 154.281 102.221C154.409 102.167 154.53 102.082 154.638 101.97C154.77 101.783 154.852 101.536 154.868 101.273C154.958 100.332 154.604 99.4285 154.199 98.6488C153.712 97.7305 152.908 98.6038 152.493 99.1099Z" fill="#3F3D56"/>
<path d="M111.909 210.193L84.4504 190.334C84.25 190.189 84.0046 190.301 83.9023 190.585L76.9045 210.013C76.8023 210.297 76.8818 210.644 77.0822 210.789L104.54 230.648C104.741 230.793 104.986 230.68 105.088 230.397L112.086 210.969C112.189 210.685 112.109 210.338 111.909 210.193Z" fill="#3F3D56"/>
<path d="M109.381 210.692L85.6923 193.56L79.6818 210.246L103.37 227.378L109.381 210.692Z" fill="#E8E8F0"/>
<path d="M82.1659 201.532C82.2383 201.331 82.123 201.042 81.9083 200.887C81.6935 200.731 81.4608 200.768 81.3884 200.969C81.316 201.17 81.4314 201.459 81.6461 201.614C81.8608 201.77 82.0935 201.733 82.1659 201.532Z" fill="#E6E8EC"/>
<path d="M108.071 220.316C108.19 219.986 107.999 219.511 107.645 219.255C107.291 218.999 106.908 219.059 106.789 219.389C106.67 219.719 106.861 220.194 107.215 220.45C107.569 220.706 107.952 220.646 108.071 220.316Z" fill="#E6E8EC"/>
<g opacity="0.1">
<path d="M223.439 38.6566C222.889 41.9626 221.852 45.1937 221.974 48.5859C219.776 49.4751 217.543 50.1748 215.286 50.6813C214.228 50.9174 213.006 51.0561 212.231 49.9953C211.903 49.4974 211.664 48.8961 211.533 48.2411C210.694 44.7289 210.975 40.7182 209.707 37.4721C209.178 36.1486 208.421 35.0361 207.506 34.238C206.592 33.4399 205.55 32.9819 204.478 32.9066C203.647 32.8654 202.703 33.154 202.277 34.1623C202.114 34.6569 201.988 35.1746 201.901 35.7066C201.314 38.2143 198.909 39.455 197.325 38.0568C196.531 37.3522 195.989 36.1827 195.272 35.3056C194.362 34.1998 193.196 33.6301 192.175 32.7379C191.254 31.9358 190.812 31.1262 190.624 30.2903C190.392 32.0932 190.326 33.75 192.175 35.3618C193.196 36.2539 194.362 36.8236 195.272 37.9294C195.989 38.799 196.521 39.976 197.325 40.6807C198.912 42.0713 201.314 40.8381 201.901 38.3305C201.988 37.7984 202.114 37.2807 202.277 36.7862C202.703 35.7779 203.647 35.4892 204.478 35.5305C205.55 35.6058 206.592 36.0637 207.506 36.8618C208.421 37.66 209.178 38.7724 209.707 40.0959C210.975 43.342 210.694 47.3527 211.533 50.8649C211.666 51.5254 211.909 52.1308 212.242 52.6304C213.017 53.6799 214.241 53.5525 215.297 53.3163C217.554 52.8099 219.787 52.1102 221.984 51.221C221.855 47.8288 222.899 44.5977 223.45 41.2917C223.873 38.5864 224.043 35.8136 223.955 33.0453C223.913 34.9351 223.74 36.8145 223.439 38.6566Z" fill="black"/>
<path d="M190.783 26.4333C190.977 25.2004 190.884 23.9119 190.519 22.7599C190.185 21.7703 189.241 21.1181 188.606 21.7441C187.971 22.3701 188.061 23.7682 187.905 24.8927C187.603 27.1042 186.053 28.611 184.466 28.9634C183.723 29.1321 182.895 29.0646 182.318 28.3824C181.947 27.8783 181.673 27.247 181.525 26.5494C181.118 24.9905 180.872 23.3571 180.792 21.6991C180.658 24.236 180.907 26.7843 181.525 29.1733C181.673 29.8708 181.947 30.5022 182.318 31.0062C182.895 31.6884 183.723 31.7559 184.466 31.5872C186.035 31.2349 187.593 29.713 187.905 27.5165C188.056 26.392 187.953 25.0314 188.609 24.3867C189.265 23.7419 190.196 24.4129 190.521 25.4025C190.635 25.7316 190.722 26.0773 190.783 26.4333Z" fill="black"/>
</g>
</g>
<defs>
<filter id="filter0_d_46_111" x="0" y="0" width="310" height="365" filterUnits="userSpaceOnUse" color-interpolation-filters="sRGB">
<feFlood flood-opacity="0" result="BackgroundImageFix"/>
<feColorMatrix in="SourceAlpha" type="matrix" values="0 0 0 0 0 0 0 0 0 0 0 0 0 0 0 0 0 0 127 0" result="hardAlpha"/>
<feOffset dy="4"/>
<feGaussianBlur stdDeviation="2"/>
<feComposite in2="hardAlpha" operator="out"/>
<feColorMatrix type="matrix" values="0 0 0 0 0 0 0 0 0 0 0 0 0 0 0 0 0 0 0.25 0"/>
<feBlend mode="normal" in2="BackgroundImageFix" result="effect1_dropShadow_46_111"/>
<feBlend mode="normal" in="SourceGraphic" in2="effect1_dropShadow_46_111" result="shape"/>
</filter>
<clipPath id="clip0_46_111">
<rect x="3" width="302.62" height="267.969" rx="20" fill="white"/>
</clipPath>
</defs>
</svg>
